<!DOCTYPE svg PUBLIC "-//W3C//DTD SVG 20010904//EN" "http://www.w3.org/TR/2001/REC-SVG-20010904/DTD/svg10.dtd">
<svg version="1.0" xmlns="http://www.w3.org/2000/svg" width="164px" height="165px" viewBox="0 0 1640 1650" preserveAspectRatio="xMidYMid meet">
<g id="layer101" fill="#020202" stroke="none">
 <path d="M661 1620 c-67 -14 -196 -59 -217 -75 -18 -15 -18 -15 1 -8 11 3 26 10 33 16 6 5 12 6 12 3 0 -4 10 -1 23 5 13 8 71 13 142 14 96 2 132 -2 180 -17 33 -11 67 -21 77 -23 42 -9 162 -89 201 -135 10 -11 23 -18 29 -14 7 4 8 3 4 -4 -4 -7 -3 -12 2 -12 5 0 12 -10 15 -21 4 -15 11 -20 22 -15 9 3 14 2 10 -3 -8 -14 6 -42 18 -34 6 4 7 1 3 -6 -5 -7 -1 -20 7 -29 9 -9 28 -53 42 -97 51 -150 43 -362 -17 -477 -25 -47 -35 -43 -18 7 6 20 18 70 25 113 12 66 11 89 -1 157 -16 84 -38 145 -54 145 -6 0 -9 4 -8 9 3 9 -60 101 -68 101 -3 0 -2 -5 2 -12 5 -7 3 -8 -5 -4 -7 5 -10 14 -7 21 4 13 -72 75 -93 75 -6 0 -11 3 -11 8 0 8 -73 47 -108 57 -12 3 -53 8 -91 10 -37 2 -72 5 -77 6 -22 4 -87 -2 -81 -7 3 -3 28 -7 56 -8 28 -2 62 -11 78 -22 15 -10 45 -27 66 -37 20 -11 37 -22 37 -26 0 -16 42 -51 53 -45 7 4 9 4 5 -1 -4 -4 1 -22 12 -40 11 -17 27 -62 35 -100 41 -175 -34 -340 -189 -414 -75 -36 -145 -46 -222 -31 -33 6 -66 12 -74 13 -8 1 -17 5 -20 9 -3 3 -12 8 -20 10 -23 5 -115 101 -143 149 -28 49 -45 123 -43 187 2 59 -9 52 -23 -15 -25 -125 -4 -304 40 -343 3 -3 11 -20 18 -38 8 -18 31 -51 52 -75 22 -23 39 -46 39 -51 0 -4 9 -6 20 -3 11 3 18 1 15 -3 -10 -16 130 -98 175 -104 14 -2 32 -6 40 -9 54 -19 197 -10 227 15 7 6 13 8 13 5 0 -3 21 3 46 14 45 20 62 20 50 1 -10 -16 -86 -49 -156 -68 -126 -34 -359 -15 -430 36 -14 9 -46 28 -70 40 -54 27 -153 125 -197 195 -18 28 -36 55 -41 60 -5 6 -7 16 -4 23 2 7 -1 18 -6 25 -21 24 -52 163 -52 227 0 63 6 95 29 170 9 30 9 32 -4 19 -8 -8 -24 -59 -35 -113 -34 -164 -24 -347 25 -486 8 -24 19 -47 23 -50 4 -3 16 -23 27 -45 56 -116 147 -221 248 -287 32 -21 60 -38 62 -38 2 0 26 -13 53 -29 79 -46 201 -72 344 -73 68 0 146 5 173 11 102 22 150 38 147 50 -1 7 2 10 7 7 10 -6 44 11 120 58 22 15 43 26 47 26 13 0 165 166 177 193 6 15 15 27 19 27 20 0 86 163 114 280 16 69 17 246 2 289 -5 13 -11 40 -14 60 -7 40 -43 140 -70 192 -31 60 -95 140 -106 133 -6 -4 -8 -3 -5 3 4 6 -9 25 -28 42 -19 17 -35 35 -35 40 0 15 -109 83 -122 75 -6 -4 -8 -3 -5 3 9 14 -40 46 -55 37 -6 -4 -8 -3 -5 3 4 6 -29 22 -76 37 -45 15 -89 31 -97 35 -22 10 -288 11 -339 1z"/>
 <path d="M618 1207 c-55 -16 -121 -59 -149 -98 -21 -31 -58 -133 -59 -163 0 -30 42 -136 51 -130 5 3 6 -3 2 -12 -5 -14 -3 -16 11 -11 11 4 15 3 10 -4 -9 -14 50 -65 106 -90 46 -21 137 -28 162 -13 7 5 21 10 30 11 82 13 185 157 182 253 -2 63 -48 175 -67 163 -6 -4 -7 -1 -3 6 9 15 -11 32 -76 66 -58 31 -138 39 -200 22z"/>
 </g>

</svg>